<svg xmlns="http://www.w3.org/2000/svg" version="1.1" xmlns:xlink="http://www.w3.org/1999/xlink" xmlns:svgjs="http://svgjs.com/svgjs" width="1440" height="560" preserveAspectRatio="none" viewBox="0 0 1440 560">
<g mask="url(&quot;#SvgjsMask1031&quot;)" fill="none">
    <rect width="1440" height="560" x="0" y="0" fill="rgba(236, 240, 241, 1)"></rect>
    <path d="M0,463.946C92.359,460.443,187.381,462.334,267.412,416.102C349.393,368.744,418.737,294.703,448.538,204.84C477.134,118.61,422.388,29.581,425.702,-61.207C430.043,-180.128,550.487,-319.567,470.908,-408.044C390.68,-497.243,238.267,-400.585,118.32,-402.96C35.943,-404.591,-40.962,-423.62,-123.267,-419.809C-230.344,-414.852,-347.006,-437.88,-435.453,-377.322C-530.228,-312.431,-618.026,-201.978,-608.606,-87.504C-599.006,29.163,-451.811,78.736,-389.757,177.996C-339.096,259.033,-357.829,380.359,-280.774,436.892C-203.397,493.661,-95.899,467.583,0,463.946" fill="#b5c5c9"></path>
    <path d="M1440 1060.286C1532.134 1047.317 1606.088 989.515 1689.364 948.019 1784.442 900.642 1902.182 885.725 1963.8690000000001 799.2429999999999 2028.967 707.979 2042.931 586.564 2026.259 475.709 2009.643 365.22 1958.393 256.394 1871.6399999999999 185.98200000000003 1790.036 119.74900000000002 1677.251 119.46499999999997 1572.814 107.67599999999999 1484.362 97.69099999999997 1399.892 111.322 1311.616 122.76400000000001 1205.685 136.495 1074.52 101.99099999999999 1003.1990000000001 181.51 932.0640000000001 260.821 972.4780000000001 387.363 978.915 493.706 984.197 580.962 1011.738 660.3199999999999 1037.242 743.933 1067.001 841.4970000000001 1060.816 962.196 1141.032 1025.203 1221.5720000000001 1088.464 1338.586 1074.5610000000001 1440 1060.286" fill="#b5c5c9"></path>
</g>
<defs>
    <mask id="SvgjsMask1031">
        <rect width="1440" height="560" fill="#ffffff"></rect>
    </mask>
</defs>
</svg>